<svg id="coqueiro" xmlns="http://www.w3.org/2000/svg" viewBox="0 0 504.73793 565.85375"><defs><style>.cls-1{fill:#6dbe45;}.cls-2{fill:#fff;}.cls-3{fill:#f68e49;}.cls-4{fill:#4a4742;}</style></defs><path class="cls-1" d="M265.01966,170.35339S367.5392,7.18316,499.01481,137.48472C499.01481,137.48472,345.62654,117.91987,265.01966,170.35339Z" transform="translate(-2.47707 -4.85141)"/><path class="cls-2" d="M268.95222,164.6073c-.62666.87321-1.18248,1.6631-1.66184,2.355.07552.43473.17851,1.02394.30865,1.7717,81.24947-50.39312,231.41578-31.24927,231.41578-31.24927-.61106-.60544-1.21993-1.19185-1.82943-1.7845-2.13934-1.04454-4.30614-2.11811-6.60426-3.06684C379.659,86.85255,282.95605,153.25244,268.95222,164.6073Z" transform="translate(-2.47707 -4.85141)"/><path class="cls-1" d="M260.71539,176.22306S98.13189,190.89662,55.285,255.46053C55.285,255.46053,94.0233,87.3987,260.71539,176.22306Z" transform="translate(-2.47707 -4.85141)"/><path class="cls-1" d="M257.19384,170.35339S212.58619-19.81646,10.67731,85.8336C10.67731,85.8336,170.32593,84.65954,257.19384,170.35339Z" transform="translate(-2.47707 -4.85141)"/><path class="cls-1" d="M260.71539,176.22306s201.90889-51.65112,190.16985,160.82243C450.88524,337.04549,387.104,201.65727,260.71539,176.22306Z" transform="translate(-2.47707 -4.85141)"/><path class="cls-2" d="M299.02962,179.32549c-25.69792.66474-38.31423-3.10243-38.31423-3.10243C387.104,201.65727,450.88524,337.04549,450.88524,337.04549c.52961-9.58535-6.6942-23.45373-6.99629-31.99328C428.69671,277.55263,392.86948,195.26892,299.02962,179.32549Z" transform="translate(-2.47707 -4.85141)"/><path class="cls-1" d="M257.19384,170.35339S214.93394,32.61737,364.409,13.05252C364.409,13.05252,280.6716,68.61655,257.19384,170.35339Z" transform="translate(-2.47707 -4.85141)"/><path class="cls-3" d="M257.19384,170.35339S127.004,344.17317,127.004,562.50547h78.53871S167.2906,464.89188,257.19384,170.35339Z" transform="translate(-2.47707 -4.85141)"/><path class="cls-2" d="M257.19353,170.35339s-3.71811,4.96869-9.88307,14.24912c-94.837,239.65574-66.94667,377.90265-66.94667,377.90265h25.17893S167.2906,464.89188,257.19353,170.35339Z" transform="translate(-2.47707 -4.85141)"/><path class="cls-4" d="M55.28184,263.66147a8.20344,8.20344,0,0,1-7.98654-10.04286c.6972-3.02659,17.76631-74.42607,77.1852-101.48561,38.80669-17.66956,85.93946-12.00181,140.09007,16.85409a8.19909,8.19909,0,0,1-3.11741,15.40227c-1.587.14418-159.16244,15.06991-199.33606,75.6045A8.19881,8.19881,0,0,1,55.28184,263.66147ZM172.15661,158.5148a97.53056,97.53056,0,0,0-40.87924,8.54267c-27.19961,12.38724-44.48692,36.23481-54.82251,56.30523,44.50846-31.26081,115.87579-45.79019,155.28886-51.74787Q199.58394,158.5209,172.15661,158.5148Z" transform="translate(-2.47707 -4.85141)"/><path class="cls-4" d="M257.196,178.55339a8.19568,8.19568,0,0,1-5.76138-2.36216C167.95222,93.83511,12.29354,94.06325,10.73749,94.03266a8.19985,8.19985,0,0,1-3.86173-15.465c67.309-35.218,125.16435-42.219,171.95508-20.80726C245.69605,88.358,264.412,165.22367,265.17663,168.48151a8.20081,8.20081,0,0,1-7.9806,10.07188ZM43.91481,79.311a525.651,525.651,0,0,1,59.094,8.61445c39.63314,8.13291,92.42332,24.27326,135.72589,56.03715-10.91326-23.3601-31.48552-55.21106-66.84368-71.3433C136.712,56.57012,93.76146,58.84021,43.91481,79.311Z" transform="translate(-2.47707 -4.85141)"/><path class="cls-4" d="M265.02184,178.55339a8.19908,8.19908,0,0,1-6.94511-12.56231c1.99515-3.17639,49.73118-77.89613,123.68506-86.39854,41.90787-4.80578,83.30205,12.69963,123.02564,52.06807a8.20022,8.20022,0,0,1-6.8078,13.95826c-1.50674-.19349-151.36659-18.55962-228.48969,31.60786A8.17094,8.17094,0,0,1,265.02184,178.55339ZM395.17547,95.2217a101.07435,101.07435,0,0,0-11.54024.66318c-38.25243,4.39757-69.42679,29.78372-89.02222,50.5788,61.7798-23.56451,140.79169-22.10989,180.49087-19.406C448.69947,105.89154,421.92267,95.2217,395.17547,95.2217Z" transform="translate(-2.47707 -4.85141)"/><path class="cls-4" d="M450.88275,345.24487a8.20046,8.20046,0,0,1-7.4148-4.70592c-.1548-.32675-16.028-33.58428-46.79386-69.37468-28.07787-32.66488-74.73846-74.2566-137.57654-86.90286a8.19919,8.19919,0,0,1-.41507-15.9815,231.0576,231.0576,0,0,1,52.30063-5.78417c.35478,0,.70993.00156,1.066.00281,40.07968.18413,74.23413,10.93667,98.77272,31.09791,35.673,29.30842,51.90666,77.72386,48.25128,143.90124a8.20434,8.20434,0,0,1-8.19038,7.74717ZM299.48026,179.23124c39.76354,15.73183,77.23139,43.45081,109.94033,81.60337a387.5505,387.5505,0,0,1,33.41882,45.33393c-2.32222-45.10018-16.53795-78.62984-42.42717-99.90023C369.93475,181.228,328.81271,177.70858,299.48026,179.23124Z" transform="translate(-2.47707 -4.85141)"/><path class="cls-4" d="M257.19041,178.55339a8.1992,8.1992,0,0,1-7.83643-5.79477c-.78863-2.57313-18.96876-63.56929,12.513-112.52651,19.58077-30.451,53.72274-49.05865,101.47781-55.31A8.1993,8.1993,0,0,1,368.9417,19.884c-.80455.53647-81.33092,55.12555-103.75851,152.31408a8.19889,8.19889,0,0,1-7.69911,6.35C257.38671,178.55215,257.28809,178.55339,257.19041,178.55339Zm75.58733-150.283c-25.76122,8.225-44.883,21.859-57.05548,40.73631-13.54038,20.99544-16.34695,45.27931-15.70244,64.53457C279.15612,84.54781,310.32643,49.13784,332.77774,28.27035Z" transform="translate(-2.47707 -4.85141)"/><path class="cls-4" d="M205.54272,570.70516h-78.5384a8.19959,8.19959,0,0,1-8.19969-8.19969c0-114.26825,35.80725-216.085,65.845-281.37729,32.53724-70.72538,64.631-113.88658,65.98014-115.68949a8.19961,8.19961,0,0,1,14.40548,7.30932c-25.24472,82.70565-55.99315,202.2709-59.12085,302.20327-1.87032,59.74845,7.18672,84.36188,7.27873,84.60344a8.22364,8.22364,0,0,1-7.65042,11.15044Zm-70.27567-16.39907h59.50128c-6.78719-30.54053-17.72979-126.5397,38.74428-331.82533-10.3203,17.76693-22.26438,40.03161-34.14884,65.90087C170.81621,350.52564,136.92146,446.50109,135.26705,554.30609Z" transform="translate(-2.47707 -4.85141)"/></svg>