<svg id="filtro" xmlns="http://www.w3.org/2000/svg" viewBox="0 0 274.52632 437.18972"><defs><style>.cls-1{fill:#f9a333;}.cls-2{fill:#fff;}.cls-3{fill:#f68e49;}.cls-4{fill:#4a4742;}.cls-5{fill:#fffefd;}</style></defs><rect class="cls-1" x="40.87858" y="301.72564" width="172.75378" height="128.07365"/><rect class="cls-2" x="40.87858" y="396.13785" width="192.76943" height="33.66144"/><polygon class="cls-2" points="233.648 301.726 40.879 301.726 8.255 7.39 266.271 7.39 233.648 301.726"/><polygon class="cls-1" points="210.811 301.726 37.573 301.726 8.255 7.39 240.129 7.39 210.811 301.726"/><polygon class="cls-2" points="263.737 30.254 266.271 7.39 8.255 7.39 10.789 30.254 263.737 30.254"/><line class="cls-3" x1="41.16692" y1="399.82857" x2="233.35996" y2="399.82857"/><path class="cls-2" d="M178.90522,402.56008a40.09411,40.09411,0,0,0-79.84148,0Z" transform="translate(-1.72118 -2.81028)"/><line class="cls-3" x1="12.93494" y1="34.15175" x2="264.65675" y2="34.15175"/><path class="cls-4" d="M242.7599,440H35.20877V297.14549H242.7599ZM49.99047,425.218H227.9782V311.92719H49.99047Z" transform="translate(-1.72118 -2.81028)"/><path class="cls-4" d="M241.98579,311.92719H35.98292L1.72118,2.81028H276.2475ZM49.21661,297.14549H228.75235L259.73718,17.592H18.2315Z" transform="translate(-1.72118 -2.81028)"/><rect class="cls-4" x="41.16664" y="392.43758" width="192.19304" height="14.78198"/><path class="cls-4" d="M187.0096,409.95163H90.95936L91.704,401.881a47.48522,47.48522,0,0,1,94.56105,0Zm-78.81276-14.782h61.575a32.7477,32.7477,0,0,0-61.575,0Z" transform="translate(-1.72118 -2.81028)"/><rect class="cls-4" x="12.93522" y="26.76076" width="251.72154" height="14.7817"/><circle class="cls-2" cx="137.49876" cy="164.88008" r="36.44606"/><path class="cls-5" d="M139.04527,122.276a3.07952,3.07952,0,0,1-3.07975-3.07972V104.06465a3.07958,3.07958,0,1,1,6.15916,0V119.1963A3.07945,3.07945,0,0,1,139.04527,122.276Z" transform="translate(-1.72118 -2.81028)"/><path class="cls-5" d="M139.04527,234.25062a3.07927,3.07927,0,0,1-3.07975-3.07944V216.03926a3.07958,3.07958,0,0,1,6.15916,0v15.13192A3.0792,3.0792,0,0,1,139.04527,234.25062Z" transform="translate(-1.72118 -2.81028)"/><path class="cls-5" d="M114.8376,128.76346a3.07815,3.07815,0,0,1-2.66986-1.53986l-7.566-13.10485a3.07947,3.07947,0,0,1,5.33382-3.07944l7.566,13.10485a3.07966,3.07966,0,0,1-2.66395,4.6193Z" transform="translate(-1.72118 -2.81028)"/><path class="cls-5" d="M170.825,225.73638a3.07815,3.07815,0,0,1-2.66986-1.53986l-7.566-13.10484a3.07947,3.07947,0,1,1,5.33381-3.07944l7.566,13.10484a3.07965,3.07965,0,0,1-2.66395,4.6193Z" transform="translate(-1.72118 -2.81028)"/><path class="cls-5" d="M97.10811,146.48648a3.06276,3.06276,0,0,1-1.53677-.41268l-13.10428-7.5654a3.07947,3.07947,0,1,1,3.07944-5.33381L98.65078,140.74a3.07954,3.07954,0,0,1-1.54267,5.74649Z" transform="translate(-1.72118 -2.81028)"/><path class="cls-5" d="M194.081,202.47392a3.06285,3.06285,0,0,1-1.53677-.41267L179.44,194.49585a3.07947,3.07947,0,0,1,3.07944-5.33382l13.10428,7.5654a3.07955,3.07955,0,0,1-1.54267,5.74649Z" transform="translate(-1.72118 -2.81028)"/><path class="cls-5" d="M90.62435,170.69694H75.4924a3.07958,3.07958,0,0,1,0-6.15916h15.132a3.07958,3.07958,0,0,1,0,6.15916Z" transform="translate(-1.72118 -2.81028)"/><path class="cls-5" d="M202.59836,170.69694H187.46672a3.07958,3.07958,0,1,1,0-6.15916h15.13164a3.07958,3.07958,0,1,1,0,6.15916Z" transform="translate(-1.72118 -2.81028)"/><path class="cls-5" d="M84.00973,202.47392a3.07955,3.07955,0,0,1-1.54267-5.74649l13.10428-7.5654a3.07947,3.07947,0,1,1,3.07944,5.33382l-13.10428,7.5654A3.06285,3.06285,0,0,1,84.00973,202.47392Z" transform="translate(-1.72118 -2.81028)"/><path class="cls-5" d="M180.98266,146.48648A3.07956,3.07956,0,0,1,179.44,140.74l13.10428-7.5654a3.07947,3.07947,0,1,1,3.07944,5.33381l-13.10428,7.5654A3.06273,3.06273,0,0,1,180.98266,146.48648Z" transform="translate(-1.72118 -2.81028)"/><path class="cls-5" d="M107.26573,225.73638a3.07965,3.07965,0,0,1-2.664-4.6193l7.566-13.10484a3.07947,3.07947,0,1,1,5.33381,3.07944l-7.566,13.10484A3.07784,3.07784,0,0,1,107.26573,225.73638Z" transform="translate(-1.72118 -2.81028)"/><path class="cls-5" d="M163.25317,128.76346a3.07965,3.07965,0,0,1-2.66395-4.6193l7.566-13.10485a3.07947,3.07947,0,0,1,5.33381,3.07944l-7.566,13.10485A3.07808,3.07808,0,0,1,163.25317,128.76346Z" transform="translate(-1.72118 -2.81028)"/></svg>