<svg xmlns="http://www.w3.org/2000/svg" viewBox="0 0 640.00958 199.30091"><g id="exclam"><path d="M611.03045,111.8001a4.31693,4.31693,0,0,1-4.08007-1.68017,9.19865,9.19865,0,0,1-2.08008-4.64014,10.60468,10.60468,0,0,1,.55957-5.27979,6.24733,6.24733,0,0,1,3.83984-3.76025q3.51852-1.11695,5.52051.96a8.5447,8.5447,0,0,1,2.32031,5.2002,10.35809,10.35809,0,0,1-1.20019,6A5.80227,5.80227,0,0,1,611.03045,111.8001ZM631.51,18.03985a3.80194,3.80194,0,0,1,2.7998-1.12012,7.081,7.081,0,0,1,3.04.64014A5.04732,5.04732,0,0,1,639.51,19.47979a3.37916,3.37916,0,0,1,.32031,2.87988q-.64161,2.40015-2.08008,6.96045-1.43994,4.55933-3.44043,10.31983-2.00244,5.75976-4.31936,12.23974-2.32175,6.48047-4.72068,12.8003-2.39941,6.32226-4.71972,12-2.32179,5.68138-4.08008,9.67968-.64161,1.44068-1.75977,1.12012a2.38967,2.38967,0,0,1-1.59961-1.6001,50.36674,50.36674,0,0,1-.80078-10.3999,77.72006,77.72006,0,0,1,.96-9.91992q.79981-4.47731,2.64063-11.52,1.83691-7.03857,4.31933-14.23975a118.42085,118.42085,0,0,1,5.44043-13.28027Q628.62909,20.44146,631.51,18.03985Z"/></g><g id="viagem"><path d="M258.23651,116.59991a46.66118,46.66118,0,0,1-4.79981-8.16016,58.39053,58.39053,0,0,1-3.35986-9.11963,150.57244,150.57244,0,0,1-.16016-39.76025,233.38259,233.38259,0,0,1,8.31983-38q.96021-2.07716,4.16016-2.08008a15.49129,15.49129,0,0,1,6.3999,1.43994,15.0339,15.0339,0,0,1,5.28027,3.84033,4.4191,4.4191,0,0,1,.96,4.96,68.61985,68.61985,0,0,0-3.52,10.31983q-1.76293,6.47973-3.35986,14.31982-1.60181,7.84131-2.80029,16.40039-1.19971,8.56128-1.75977,16.39991a116.532,116.532,0,0,0-.24023,14.16015,29.32365,29.32365,0,0,0,1.91992,10A213.756,213.756,0,0,0,279.0368,90.43975q6.24024-10.79957,11.75977-21.91992,5.52026-11.1189,10.48-22.48,4.95776-11.35841,9.75976-22.3999,2.39941-5.59864,4.72071-11.83985a35.02607,35.02607,0,0,1,6.16015-10.72021q1.59669-1.43994,2.48047-.96a2.65257,2.65257,0,0,1,1.19922,1.83984,12.57941,12.57941,0,0,1,.32031,2.87988V7.16Q324.79511,14.5208,323.99725,21.72A56.61079,56.61079,0,0,1,320.63592,35.64q-4.16014,10.56006-8.55859,20.96-4.40333,10.40259-9.44043,20.48Q297.59637,87.1602,291.75653,96.68a181.80529,181.80529,0,0,1-12.71973,18.15966q-5.44116,6.87817-10.80029,7.28028Q262.87445,122.51763,258.23651,116.59991Z"/><path d="M327.19647,64.11993q.48046,1.12134,1.59961,0a34.06147,34.06147,0,0,0,5.36035-7.04,10.68263,10.68263,0,0,0,1.2002-8.31983,3.299,3.299,0,0,0-1.44043-1.68017,9.502,9.502,0,0,0-2.08008-1.04,4.90422,4.90422,0,0,0-3.91992.87988,6.21883,6.21883,0,0,0-2.79981,3.43994,13.27465,13.27465,0,0,0-.63965,7.04A18.17676,18.17676,0,0,0,327.19647,64.11993Z"/><path d="M609.75116,89.55987q-.80274-.96021-8.63965,5.27978-2.72314,2.24268-6.32031,5.44043-3.60059,3.20216-6.96,6.07959a64.0097,64.0097,0,0,1-6,4.64014q-2.63965,1.76293-3.75977.96a27.22367,27.22367,0,0,1,.71973-7.52,55.69985,55.69985,0,0,1,2.32031-7.35986q1.43994-3.679,3.20019-7.43994,1.75782-3.75734,3.67969-7.76026a20.28956,20.28956,0,0,0-.71972-6.48,14.48362,14.48362,0,0,0-2.64063-5.27978,9.00882,9.00882,0,0,0-4.16016-2.96,7.63655,7.63655,0,0,0-5.27929.31982,55.61274,55.61274,0,0,0-12.16016,7.04,88.787,88.787,0,0,0-10.87988,9.43994,32.82324,32.82324,0,0,0,.7998-5.75977,12.785,12.785,0,0,0-1.12011-5.91992,5.798,5.798,0,0,0-3.36036-3.52,4.536,4.536,0,0,0-4.31933.63965q-4.31982,5.44116-8.87988,10.96-4.56006,5.52027-9.2002,10.64014.6372-3.03735,1.43945-6.23975.79981-3.19921,1.44043-6.40039a9.04271,9.04271,0,0,0-.24023-5.27978,5.94554,5.94554,0,0,0-2.39942-2.96,4.0765,4.0765,0,0,0-3.12011-.48,3.18228,3.18228,0,0,0-2.24024,2.31982q-.95948,2.72241-2,6.16016-1.043,3.44238-2.16015,7.04c-.201.64556-.38422,1.27349-.58106,1.91534-.42364.43994-.86566.89221-1.33789,1.36444q-1.60107,1.43994-4,3.68018-2.39941,2.24267-4.96,4.64013-2.56054,2.39941-5.12012,4.56006-2.56054,2.15991-4.63965,3.59961-1.7622.96021-4.63964,2.24024a17.65075,17.65075,0,0,1-5.68067,1.52,6.854,6.854,0,0,1-4.55957-.96q-1.7622-1.20043-1.28027-5.36035a7.02741,7.02741,0,0,1,1.76074-3.91992,36.35411,36.35411,0,0,1,4.15918-4.56006q2.40089-2.23828,4.96-4.31982,2.55762-2.07716,4-3.35987a18.5616,18.5616,0,0,0,4.08008-5.20019,23.38779,23.38779,0,0,0,1.83984-6,7.515,7.515,0,0,0-1.03906-6.23975,8.62425,8.62425,0,0,0-5.20019-3.36035,19.91687,19.91687,0,0,0-11.44043,3.68018,28.731,28.731,0,0,0-8.08008,9.04,45.32191,45.32191,0,0,0-4.65021,11.546c-1.04968.60046-2.1084,1.20385-3.18866,1.8139-2.13477,1.28027-4.59033,2.64014-6.88232,4.08008-2.29493,1.43994-3.8833,2.96-6.8833,4.56006v-1.6001c0-2.13233-.105-4.16016-.15674-6.08008-.05567-1.91992-.06617-3.83984-.27906-5.75976a2.44427,2.44427,0,0,0-2.17956-2.24024,11.40319,11.40319,0,0,0-4.20892.16016,21.78262,21.78262,0,0,0-4.46531,1.43994A22.65445,22.65445,0,0,0,439.0258,87.64a58.15858,58.15858,0,0,0-5.756,4.08007q-3.36036,2.63965-6.47858,5.04a52.88839,52.88839,0,0,1-5.75881,3.91993q-2.63966,1.52269-3.59914.56a10.82884,10.82884,0,0,1,.00024-5.28027A20.64418,20.64418,0,0,1,420.0733,89.24a19.459,19.459,0,0,1,5.44049-5.84033,13.98208,13.98208,0,0,1,8.39945-2.48q1.59815,0,3.44044.16016,1.83691.16113,3.59962.48,4.15869.47973,2.56055-3.04a4.02331,4.02331,0,0,0-1.84082-2.3999,34.46651,34.46651,0,0,0-3.11914-1.6001,24.97253,24.97253,0,0,0-17.60058-.64014,17.899,17.899,0,0,0-9.43946,6.40039,27.58387,27.58387,0,0,0-2.85846,4.67823,52.989,52.989,0,0,0-3.86029,4.12158q-2.87988,3.36034-6.16015,7.04-3.28125,3.68261-6.64063,6.96a21.39185,21.39185,0,0,1-6.39941,4.56006q-3.84083,1.43994-5.28028.16015-1.43994-1.27881-.96-5.44043a22.19223,22.19223,0,0,1,2.32032-6.23974q1.8369-3.51783,2.96-6.08008a5.76956,5.76956,0,0,0,.39941-4.08008,6.94028,6.94028,0,0,0-2.08008-3.35986,5.95732,5.95732,0,0,0-3.59961-1.52,6.02288,6.02288,0,0,0-4.16015,1.43994q-.16115.16113-2.16016,2.80029-2.00244,2.63966-4.71973,6.07959-2.72168,3.44312-5.75976,6.96a48.59905,48.59905,0,0,1-5.44043,5.52q-2.39941,2.00244-3.51953,1.76026-1.12208-.24024-.16016-4.39991A40.63024,40.63024,0,0,1,356.635,93.64,84.01406,84.01406,0,0,1,362.715,83.55987a61.69571,61.69571,0,0,1,7.35938-8.79981q3.84082-3.75805,6.87988-3.76025a3.54856,3.54856,0,0,1,2.32031.72021,5.49161,5.49161,0,0,1,1.36036,1.6001,8.25229,8.25229,0,0,1,.71972,1.75977q.24024.8811.40039,1.35986c.31934.64014.63965.93506.96.88037a1.94008,1.94008,0,0,0,1.04-.72021,5.81358,5.81358,0,0,0,.96-1.6001q.397-.96021.71973-1.91992a6.52209,6.52209,0,0,0-.48047-4.72022,9.86617,9.86617,0,0,0-3.19922-3.59961,11.25494,11.25494,0,0,0-4.87988-1.84033,13.90375,13.90375,0,0,0-5.36035.24024,24.542,24.542,0,0,0-13.12012,7.35986,50.97876,50.97876,0,0,0-8.96,13.12012c-.47455,1.02374-.91522,2.056-1.34027,3.09216q-4.25179,4.6734-8.5777,9.30774-5.92236,6.32226-12.48047,13.04a35.9603,35.9603,0,0,1-4.32031,3.83984q-1.60107,1.12134-1.2793-1.27978a29.36187,29.36187,0,0,1,.79981-3.68018q.6372-2.40015,1.43945-5.04.79982-2.63964,1.52051-5.04.71924-2.39941,1.04-3.67969.79834-2.71875,1.43945-5.20019.63867-2.47851,1.44043-5.19971a10.118,10.118,0,0,0,.24024-5.76025A13.31826,13.31826,0,0,0,327.11639,73.16a7.26916,7.26916,0,0,0-3.44043-2.64014,3.063,3.063,0,0,0-3.35937.80029,26.16142,26.16142,0,0,0-2.24024,4.63965A131.26986,131.26986,0,0,0,313.35663,92.68a67.27071,67.27071,0,0,0-1.52051,18,10.07588,10.07588,0,0,0,1.52051,5.35986,13.43106,13.43106,0,0,0,4.23925,4.24023,4.19287,4.19287,0,0,0,2.16016.79981,9.97234,9.97234,0,0,0,2.7998-.08008,16.64625,16.64625,0,0,0,2.80079-.71973,7.50745,7.50745,0,0,0,2.16015-1.12011,38.19506,38.19506,0,0,0,4.15918-4.16016,48.21229,48.21229,0,0,0,4.32031-4.71973q2.71875-3.27759,5.67969-7.20019c.794-1.05139,1.56561-2.0882,2.3338-3.12268-.11676.53814-.23315,1.076-.33477,1.60266a21.12622,21.12622,0,0,0,.16015,4.31982,6.81922,6.81922,0,0,0,1.75977,4.16016,18.77075,18.77075,0,0,0,3.04,2.48,9.09589,9.09589,0,0,0,3.51953,1.35986,11.50362,11.50362,0,0,0,4.87988-.07959,20.55949,20.55949,0,0,0,4.40039-1.6001,23.34093,23.34093,0,0,0,3.83984-2.3999q1.75929-1.35791,3.2002-2.48a15.24982,15.24982,0,0,0,1.75977,4.79981,11.0979,11.0979,0,0,0,8,5.52,11.95277,11.95277,0,0,0,5.75976-.72022,38.44085,38.44085,0,0,0,9.52051-5.19971,48.43089,48.43089,0,0,0,8-7.52,61.99939,61.99939,0,0,0,4.30414-5.73608,17.35429,17.35429,0,0,0,.815,4.136,11.32742,11.32742,0,0,0,2.96,4.64013,10.69779,10.69779,0,0,0,5.75977,2.63965,20.372,20.372,0,0,0,8-.63965,44.01543,44.01543,0,0,0,7.83984-3.04,56.1883,56.1883,0,0,0,7.44043-4.48q3.59912-2.55761,6.7998-5.12011,1.27881-1.27881,1.59961-.08008a8.78572,8.78572,0,0,1,.08008,3.20019,31.7793,31.7793,0,0,1-.7998,4.15967,6.68363,6.68363,0,0,1-1.2002,2.8003q-7.043,6.082-13.75976,12.56A171.49712,171.49712,0,0,0,418.634,132.91973,153.75023,153.75023,0,0,0,407.43377,148.2a123.1647,123.1647,0,0,0-9.20019,17.19971,60.17045,60.17045,0,0,0-2.71973,7.52,37.8996,37.8996,0,0,0-1.52051,8.72022,25.793,25.793,0,0,0,.87989,8.3999,13.86657,13.86657,0,0,0,4.48047,6.87988,9.23105,9.23105,0,0,0,4.39941,2.16016,15.65366,15.65366,0,0,0,4.7207.08008,48.55417,48.55417,0,0,0,16.39942-14.39991,104.365,104.365,0,0,0,11.60058-20.40039,196.06314,196.06314,0,0,0,8.23926-22.96q3.43945-11.84253,6.64063-22.23974a40.74956,40.74956,0,0,1,1.83984-5.91993,15.83715,15.83715,0,0,1,3.59961-5.12011q3.51855-3.19849,6.48047-5.68018c1.81793-1.52277,3.7558-3.30823,5.80108-5.33008a40.30771,40.30771,0,0,0-.12237,5.73q0,8.00317,4.7207,11.52,4.7168,3.52149,12.08008,3.04a24.28907,24.28907,0,0,0,8.0791-2.7998,49.17938,49.17938,0,0,0,7.52051-5.12012,71.08325,71.08325,0,0,0,6.87988-6.48c1.73676-1.86408,3.36762-3.643,4.938-5.37445-.07446.301-.15137.60693-.21924.89447a25.87231,25.87231,0,0,0-.63965,4.3999,31.29127,31.29127,0,0,0,0,6.32031,14.76911,14.76911,0,0,0,.55957,2.15967,5.57968,5.57968,0,0,0,1.12012,2,2.83718,2.83718,0,0,0,1.67969.96,2.884,2.884,0,0,0,2.24023-.96q5.59865-7.67945,11.43946-15.35986,5.83885-7.68018,12.56054-15.2002-.32226,1.2832-.7998,4.56006a55.0948,55.0948,0,0,0-.56055,6.72022,30.19367,30.19367,0,0,0,.40039,6.08007q.48048,2.63966,2.08008,2.63965a3.78165,3.78165,0,0,0,1.51953-.3999,12.35231,12.35231,0,0,0,2.64063-2q4.15869-3.99756,9.12011-8.7998,4.957-4.8003,9.43946-8.64014,4.478-3.84009,7.59961-6,3.1201-2.15991,3.60058-.87988-1.92041,3.68261-4.16015,8a87.98774,87.98774,0,0,0-4,8.87988A64.72988,64.72988,0,0,0,565.99139,102.2a26.28156,26.28156,0,0,0-.56055,8.79981,9.2054,9.2054,0,0,0,2.24024,5.35986,11.83967,11.83967,0,0,0,4.56055,3.2002,13.43582,13.43582,0,0,0,5.35937.96,8.708,8.708,0,0,0,4.79981-1.52,74.58865,74.58865,0,0,0,12.08007-10.23975q5.67774-5.918,10.80079-12Q610.551,90.51984,609.75116,89.55987ZM487.75311,76.91973a18.02346,18.02346,0,0,1,6.79981-4.15967,15.49982,15.49982,0,0,1-4.08008,6.48,64.72194,64.72194,0,0,1-6.32032,5.19971A15.49094,15.49094,0,0,1,487.75311,76.91973Zm-51.43945,51.91992q-1.76222,4.71753-4.08008,10.08008-2.32178,5.35914-4.63965,10.24024-2.32178,4.87866-3.44043,7.12011-1.43994,2.87988-3.67969,7.43994-2.24267,4.56006-5.04,9.35987a73.0688,73.0688,0,0,1-6,8.7998,20.07852,20.07852,0,0,1-6.40039,5.59961,23.21649,23.21649,0,0,1-.55957-8.71924,53.94425,53.94425,0,0,1,2-8.88037,73.71477,73.71477,0,0,1,6.08008-13.35986,115.52871,115.52871,0,0,1,8.08008-12.08008q4.39746-5.75976,9.43945-11.27978,5.04052-5.52027,10-10.96A22.90339,22.90339,0,0,1,436.31366,128.83965Z"/></g><g id="boa"><path d="M55.84,51.16a6.10472,6.10472,0,0,0,1.75977-.24024A6.11589,6.11589,0,0,1,59.36,50.68a27.90781,27.90781,0,0,0,10.79981-2.56006,51.3693,51.3693,0,0,0,11.04-6.39991A35.90365,35.90365,0,0,0,89.36,33.24q3.12012-4.63916,2.31983-8.96a15.86291,15.86291,0,0,0-6.79981-7.52,28.35893,28.35893,0,0,0-10.64013-3.28027A52.38467,52.38467,0,0,0,61.36,13.64,97.07786,97.07786,0,0,0,47.9201,16.35967a86.0666,86.0666,0,0,0-12.48,4.48,51.61928,51.61928,0,0,0-9.68017,5.52q-1.76222.64161-2-.87988a9.17655,9.17655,0,0,1,.31982-3.67969,23.44727,23.44727,0,0,1,1.6001-4.32031,15.81414,15.81414,0,0,1,1.84033-3.12012A18.13007,18.13007,0,0,1,32.8,7.8001a28.09878,28.09878,0,0,1,7.04-3.84033A58.93157,58.93157,0,0,1,55.5202,1.07989a83.22724,83.22724,0,0,1,18.87988.87988,58.06027,58.06027,0,0,1,17.04,5.36035Q99.03753,11.15948,101.76,17.87969A23.714,23.714,0,0,1,102.63983,28.2a28.00718,28.00718,0,0,1-3.04,9.35987,34.17009,34.17009,0,0,1-6,8,45.71241,45.71241,0,0,1-8,6.3999,2.46234,2.46234,0,0,1-.63965.48q-.323.16113-.96.48,2.71875,1.12134,5.11963,2.16016A21.21647,21.21647,0,0,1,93.76,57.87969a20.01405,20.01405,0,0,1,4.64013,5.04,17.79061,17.79061,0,0,1,2.56006,6,21.94972,21.94972,0,0,1,.63965,10.48,48.57842,48.57842,0,0,1-2.71973,9.52,68.62133,68.62133,0,0,1-5.68017,9.36035,41.75367,41.75367,0,0,1-7.12012,7.75977,71.612,71.612,0,0,1-22.48,17.04,86.249,86.249,0,0,1-26.63965,7.75976,82.21268,82.21268,0,0,1-8.96-.15966A25.31843,25.31843,0,0,1,20.32,128.91973a20.663,20.663,0,0,1-6.39991-4.15967A24.89341,24.89341,0,0,1,8.8,117.39971a71.68316,71.68316,0,0,1-5.52-9.83984,36.35984,36.35984,0,0,1-3.04-10,19.92759,19.92759,0,0,1,.72021-9.27979,16.31906,16.31906,0,0,1,5.75977-7.68017A53.97673,53.97673,0,0,1,13.04022,75.72a20.3609,20.3609,0,0,1,7.43994-2.96Q21.27851,72.44072,21.84,72.2a3.43685,3.43685,0,0,1,1.35987-.24023h.48a8.42771,8.42771,0,0,0-1.27979,1.6001,6.60347,6.60347,0,0,1-.96,1.27978,71.12434,71.12434,0,0,0-5.28027,7.52,36.87023,36.87023,0,0,0-3.91992,8.64014,27.26884,27.26884,0,0,0-1.19971,8.96A14.91356,14.91356,0,0,0,13.76,108.11993a15.49551,15.49551,0,0,0,5.35986,4.87988A20.79228,20.79228,0,0,0,25.84,115.24a33.05768,33.05768,0,0,0,7.27979.31983q3.679-.24024,7.04-.72022a60.5438,60.5438,0,0,0,19.76025-7.35986A83.45546,83.45546,0,0,0,76.32,94.68q1.91967-2.239,4.08007-5.04a69.17875,69.17875,0,0,0,4-5.76026,47.54692,47.54692,0,0,0,3.19971-6.07959,25.68621,25.68621,0,0,0,1.84033-6,13.20931,13.20931,0,0,0-2.96-6.80029,10.91847,10.91847,0,0,0-5.84033-3.12012A34.88524,34.88524,0,0,0,71.76,61.32012Q66.559,61.55963,59.84,62.2a42.4225,42.4225,0,0,1-4.64013.39991q-2.40015.08275-4.79981.3999c-.10742,0-.26757.10742-.48.32031a.46247.46247,0,0,1-.32031.15967Q44.478,73.07964,39.84,82.99981a92.86542,92.86542,0,0,1-11.35986,18.3999q-.323.48047-1.52,2.16016a24.11521,24.11521,0,0,1-2.56006,3.04A5.2609,5.2609,0,0,1,21.76,108.2q-1.28247.2395-1.6001-2.16015a8.34491,8.34491,0,0,1-.63965-4.23975,35.001,35.001,0,0,1,.79981-5.52,54.82179,54.82179,0,0,1,1.52-5.52q.87746-2.64037,1.35987-4.08007Q23.999,83.8001,24.8,80.99981a51.961,51.961,0,0,1,1.91992-5.52Q30.23773,68.44122,33.36,61.55987q3.12012-6.87744,6.79981-13.6001,1.92041-4.15869,3.91992-8.15967,1.99878-3.99756,4.08008-7.84033A4.47344,4.47344,0,0,1,51.84,29.64a6.97178,6.97178,0,0,1,4.23975,1.27978,11.26764,11.26764,0,0,1,3.36035,3.68018,7.90669,7.90669,0,0,1,1.04,5.04,34.69229,34.69229,0,0,1-2.08008,6Q57.11761,48.44146,55.84,51.16Z"/><path d="M221.67889,83.72q-.08275-.55883-.87988-.88037-.47974-.3186-1.2002.24024a13.22976,13.22976,0,0,0-1.1997,1.04,43.80385,43.80385,0,0,0-4.8003,4.96q-2.87988,3.36034-6.15966,7.04-3.28125,3.68261-6.64014,6.96a21.39935,21.39935,0,0,1-6.3999,4.56006q-3.84009,1.43994-5.28028.16015-1.43994-1.27881-.96-5.44043a22.19217,22.19217,0,0,1,2.32031-6.23974q1.83691-3.51783,2.96-6.08008a5.7724,5.7724,0,0,0,.3999-4.08008,6.94028,6.94028,0,0,0-2.08008-3.35986,5.95867,5.95867,0,0,0-3.6001-1.52,6.02439,6.02439,0,0,0-4.16015,1.43994q-.16114.16113-2.15967,2.80029-2.00244,2.63966-4.72022,6.07959-2.72241,3.44312-5.75976,6.96a48.722,48.722,0,0,1-5.43994,5.52q-2.40015,2.00244-3.52,1.76026-1.12134-.24024-.16016-4.39991a40.6643,40.6643,0,0,1,3.2002-7.60009,84.00876,84.00876,0,0,1,6.07959-10.08008,61.69886,61.69886,0,0,1,7.36035-8.79981q3.84009-3.75805,6.87988-3.76025a3.5499,3.5499,0,0,1,2.31982.72021,5.49161,5.49161,0,0,1,1.36036,1.6001,8.22694,8.22694,0,0,1,.71972,1.75977c.16016.5874.29248,1.04.3999,1.35986.32032.64014.64014.93506.96.88037a1.93667,1.93667,0,0,0,1.04-.72021,5.79,5.79,0,0,0,.96-1.6001q.39769-.96021.72021-1.91992a6.522,6.522,0,0,0-.48-4.72022,9.86891,9.86891,0,0,0-3.2002-3.59961,11.24787,11.24787,0,0,0-4.87988-1.84033A13.90169,13.90169,0,0,0,180.319,63.16a24.542,24.542,0,0,0-13.12012,7.35986,50.56947,50.56947,0,0,0-7.64862,10.57422c-.7157.21112-1.4425.441-2.19073.70605q-2.48292.8811-4.72022,1.52-1.91967.47974-4.16016,1.27979a16.40356,16.40356,0,0,1-4.15966.96q.15747-.96021.48-2.87988a18.36408,18.36408,0,0,0,.16015-4.24024,20.27691,20.27691,0,0,0-.96045-4.7998,12.257,12.257,0,0,0-2.71972-4.56006,11.19279,11.19279,0,0,0-5.2002-3.68018,13.1604,13.1604,0,0,0-6.48-.31982,16.59514,16.59514,0,0,0-9.83984,4.72021,38.932,38.932,0,0,0-6.96,8.87989,12.85385,12.85385,0,0,0-1.43994,3.52q-.48048,1.91968-.96,3.67969a1.59635,1.59635,0,0,1-.72021.64014c-.26514.10742-.50488.21484-.71973.31982a2.07136,2.07136,0,0,0-.64013.56006,3.38605,3.38605,0,0,0-.48,1.52,48.70634,48.70634,0,0,0-1.12012,6.16016,40.87227,40.87227,0,0,0-.24024,7.68017,26.31171,26.31171,0,0,0,1.44043,7.27979,9.57956,9.57956,0,0,0,3.59961,4.96,11.90581,11.90581,0,0,0,7.68018,2.56006q3.19848,0,6.64014-2.87988a45.06789,45.06789,0,0,0,6.56-6.87989,83.82757,83.82757,0,0,0,5.67969-8.24023q2.55762-4.2378,4-6.79981a32.76934,32.76934,0,0,1,7.12012-2.72021,44.78235,44.78235,0,0,0,7.43115-2.64649c-.707,1.77161-1.35052,3.55909-1.91162,5.3667a82.58469,82.58469,0,0,0-2.23975,8.79981,21.1562,21.1562,0,0,0,.15967,4.31982,6.82224,6.82224,0,0,0,1.76026,4.16016,18.77075,18.77075,0,0,0,3.04,2.48,9.0951,9.0951,0,0,0,3.52,1.35986,11.504,11.504,0,0,0,4.87988-.07959A20.55538,20.55538,0,0,0,170.239,112.2a23.34093,23.34093,0,0,0,3.83984-2.3999q1.75929-1.35791,3.2002-2.48a15.22582,15.22582,0,0,0,1.75977,4.79981,11.0979,11.0979,0,0,0,8,5.52,11.95533,11.95533,0,0,0,5.76025-.72022,38.43783,38.43783,0,0,0,9.52-5.19971,48.41151,48.41151,0,0,0,8-7.52,63.10333,63.10333,0,0,0,6.48-9.20019,80.03314,80.03314,0,0,0,4.96-10.08008A8.6181,8.6181,0,0,0,221.67889,83.72Zm-90.07959,16a41.60622,41.60622,0,0,1-3.19971,5.19971,36.84093,36.84093,0,0,1-3.84033,4.56006,7.6644,7.6644,0,0,1-3.59961,2.32031,11.04242,11.04242,0,0,1-1.28027-3.52,32.25915,32.25915,0,0,1-.64014-4.72021,35.77539,35.77539,0,0,1,0-4.79981,15.52447,15.52447,0,0,1,.64014-3.76025,34.96836,34.96836,0,0,0,6.87988.64014q3.679,0,6.88037-.31983A23.875,23.875,0,0,1,131.5993,99.72Zm4.56006-13.52a1.13179,1.13179,0,0,1-.96.96,24.54675,24.54675,0,0,0-2.96.31982,39.27976,39.27976,0,0,1-4.48.3999,34.12086,34.12086,0,0,1-4.16016-.07959q-1.84131-.15747-1.83984-.96045a3.76067,3.76067,0,0,0-1.43994-3.1997,1.548,1.548,0,0,1-.32032-1.12012q1.75929-2.71875,3.68018-5.27979a17.60971,17.60971,0,0,1,5.12012-4.48,6.14844,6.14844,0,0,1,3.35986-.64013,4.19515,4.19515,0,0,1,2.87988,1.43994,8.28733,8.28733,0,0,1,2.32032,5.91992A16.24327,16.24327,0,0,1,136.15936,86.2Z"/></g></svg>