<svg xmlns="http://www.w3.org/2000/svg" viewBox="0 0 728.4021 290.09414">
  <g id="lettering">
    <g>
      <path d="M22.70569,276.92525a110.80867,110.80867,0,0,1-11.39991-19.37989,138.70192,138.70192,0,0,1-7.98-21.66064A357.61279,357.61279,0,0,1,2.94543,141.455a554.24913,554.24913,0,0,1,19.76026-90.25q2.28-4.93432,9.87988-4.93994A36.78819,36.78819,0,0,1,47.78576,49.685a35.70481,35.70481,0,0,1,12.54,9.12012q4.93361,5.6997,2.27979,11.77979a163.08864,163.08864,0,0,0-8.35986,24.50976q-4.1858,15.39037-7.98,34.01025-3.80346,18.62256-6.6499,38.9502-2.85059,20.33277-4.18017,38.94971a276.6522,276.6522,0,0,0-.56983,33.62988q.7566,15.01685,4.55957,23.75049a507.617,507.617,0,0,0,32.68018-49.59033q14.81982-25.65015,27.93017-52.06006,13.10961-26.40674,24.88965-53.39014Q136.69983,82.36812,148.10559,56.145q5.70043-13.29711,11.21-28.12011a83.23246,83.23246,0,0,1,14.62988-25.46q3.79469-3.41969,5.89014-2.27979a6.294,6.294,0,0,1,2.8501,4.36963,29.91428,29.91428,0,0,1,.75976,6.84033v5.50977q-2.66235,17.4829-4.55957,34.58008a134.45525,134.45525,0,0,1-7.98,33.06005q-9.88623,25.07959-20.33008,49.77979-10.456,24.70605-22.41992,48.64014-11.9707,23.93994-25.84033,46.5498a431.66,431.66,0,0,1-30.21,43.12988q-12.92286,16.33448-25.6499,17.29Q33.7196,290.97946,22.70569,276.92525Z"/>
      <path d="M373.25012,176.98482a37.42488,37.42488,0,0,0-2.08984-10.83008,31.67762,31.67762,0,0,0-5.50978-9.87988,20.00048,20.00048,0,0,0-9.69042-6.27,37.06356,37.06356,0,0,0-22.60986,5.12988,99.78254,99.78254,0,0,0-20.52,15.96,176.76281,176.76281,0,0,0-17.85987,20.90039q-8.176,11.21265-15.01025,19.56983,3.03735-10.25977,5.51025-20.89991,2.46681-10.634.9502-18.24023a7.01979,7.01979,0,0,0-3.42041-4.56006,10.83564,10.83564,0,0,0-6.07959-1.32959,13.48979,13.48979,0,0,0-6.27,1.8999,7.5125,7.5125,0,0,0-3.61034,4.75q-2.66309,11.40015-5.12988,23.93994c-.59766,3.02747-1.176,6.055-1.75562,9.08252-1.17163,1.22669-2.41595,2.50214-3.75122,3.83741q-3.80274,3.41967-9.5,8.74023-5.6997,5.32543-11.77979,11.02-6.08276,5.6997-12.16015,10.82959-6.08277,5.13062-11.02,8.55029-4.18579,2.2793-11.02,5.32032a41.91029,41.91029,0,0,1-13.48975,3.60937q-6.65331.56982-10.83007-2.28027-4.1858-2.84913-3.04-12.7295,0-3.79394,4.18017-9.31a86.39,86.39,0,0,1,9.87988-10.83008q5.69972-5.31666,11.77979-10.25977,6.0747-4.93432,9.5-7.98,6.84009-6.457,9.69043-12.3501a55.696,55.696,0,0,0,4.36963-14.25q1.897-8.73705-2.46973-14.81982a20.47583,20.47583,0,0,0-12.3501-7.98047q-15.58593.38306-27.16992,8.74024a68.21382,68.21382,0,0,0-19.18994,21.47021,107.93425,107.93425,0,0,0-11.40039,28.68994,103.6458,103.6458,0,0,0-3.03955,30.01953q0,19.00635,11.21,27.36035,11.20386,8.3628,28.68994,7.21973a57.70994,57.70994,0,0,0,19.18994-6.64941,116.8607,116.8607,0,0,0,17.85987-12.16016,168.94009,168.94009,0,0,0,16.33984-15.39062q7.78418-8.35327,14.63037-15.95948c.301-.34784.59247-.69561.89044-1.04345q-1.81291,9.6059-3.74395,18.52343-2.46681,11.39942-5.12989,20.51954a14.9901,14.9901,0,0,0-.76025,9.31054,8.09408,8.09408,0,0,0,5.32031,5.88965,6.13576,6.13576,0,0,0,7.21973-1.89941q10.26048-14.4375,20.52-31.16016,10.26049-16.71753,21.09033-32.30029a235.36725,235.36725,0,0,1,22.98975-28.31006,84.56636,84.56636,0,0,1,26.60009-19.18994,126.076,126.076,0,0,0-9.5,15.96,72.44691,72.44691,0,0,0-6.08007,17.1001,46.67725,46.67725,0,0,0-.56983,17.29,38.8983,38.8983,0,0,0,7.40967,16.91016q1.897,2.28,6.46,3.41992a31.80228,31.80228,0,0,0,9.12012.94971,15.89183,15.89183,0,0,0,7.22021-1.71q2.65357-1.51392.37988-4.56006-5.69971-4.93359-6.08007-11.21a34.27141,34.27141,0,0,1,1.71-12.73,66.15492,66.15492,0,0,1,5.70019-12.73q3.60718-6.26954,6.27-11.58985A28.454,28.454,0,0,0,373.25012,176.98482ZM191.99377,182.685q5.88648-6.074,16.1499-9.87988a36.80576,36.80576,0,0,1-9.68994,15.38965,153.33769,153.33769,0,0,1-15.01025,12.3501Q186.09778,188.7712,191.99377,182.685Z"/>
      <g>
        <path d="M426.25989,125.125q3.79393-3.42041,7.5996-7.22021a67.26378,67.26378,0,0,1,7.98-6.83984q5.70044-4.93434,9.69042-1.71a56.41468,56.41468,0,0,1,8.35987,8.73975,92.52422,92.52422,0,0,0,9.68994,10.4502q5.31665,4.94312,14.06006,3.04,18.99683-3.794,25.08008-24.7002a6.562,6.562,0,0,0-.19-4.75q-.95361-1.70948-3.99023.18994-3.80274,2.66308-7.79,5.13037a79.73275,79.73275,0,0,0-7.79,5.50977q-5.32544,3.42041-8.92969,2.8501a14.12858,14.12858,0,0,1-6.84033-3.23,45.8801,45.8801,0,0,1-6.46-6.64991,56.71953,56.71953,0,0,0-7.79-7.79,15.44816,15.44816,0,0,0-10.06982-3.60986,20.54176,20.54176,0,0,0-10.06983,3.23,44.724,44.724,0,0,0-5.89013,4.75,64.08321,64.08321,0,0,0-7.41016,7.98,36.48056,36.48056,0,0,0-5.12988,8.54981q-1.71021,4.18578,1.33008,6.83984A3.80586,3.80586,0,0,0,426.25989,125.125Z"/>
        <path d="M653.49621,191.04488a90.59114,90.59114,0,0,0-11.21093,3.23q-5.89453,2.09325-11.21,3.60986-4.56,1.14038-9.87988,3.04a38.9766,38.9766,0,0,1-9.87988,2.28027q.375-2.28,1.14062-6.84033a43.65731,43.65731,0,0,0,.37989-10.06982,48.16758,48.16758,0,0,0-2.28028-11.39991,29.10686,29.10686,0,0,0-6.46-10.83007,26.57977,26.57977,0,0,0-12.34961-8.74024,31.25087,31.25087,0,0,0-15.39062-.75976,39.41377,39.41377,0,0,0-23.37012,11.21,92.51519,92.51519,0,0,0-16.5293,21.08984,30.57884,30.57884,0,0,0-3.42089,8.36035q-1.08628,4.34637-2.17249,8.33917c-.61029.61139-1.244,1.26551-1.89654,1.95447-.59681.244-1.14209.48792-1.63019.72638a4.914,4.914,0,0,0-1.52051,1.32959,6.07979,6.07979,0,0,0-.93494,2.44537c-.4411.50446-.88415,1.01246-1.34045,1.54487q-6.84082,7.97973-14.63037,16.72021-7.793,8.74585-15.77,16.52979-7.98046,7.793-15.2002,10.83007-9.12012,3.42042-12.54.37989-3.41967-3.03663-2.27978-12.91993a52.6781,52.6781,0,0,1,5.50976-14.81982q4.36451-8.35473,7.03028-14.44043a13.70431,13.70431,0,0,0,.9497-9.68994,16.48473,16.48473,0,0,0-4.93994-7.98,14.149,14.149,0,0,0-8.5498-3.60986q-4.94311-.37428-9.87988,3.41992-.38307.38306-5.13038,6.6499-4.75561,6.27027-11.21,14.43994-6.46581,8.176-13.67968,16.53027a115.66988,115.66988,0,0,1-12.91993,13.11036q-5.70043,4.75488-8.36035,4.17968-2.66309-.56982-.37988-10.45019,1.51392-6.074,7.6001-18.04981A199.56126,199.56126,0,0,1,423.59973,198.455a146.49691,146.49691,0,0,1,17.48-20.8999q9.12012-8.92456,16.33984-8.93018a8.43185,8.43185,0,0,1,5.51026,1.71,13.0509,13.0509,0,0,1,3.23,3.7998,19.52479,19.52479,0,0,1,1.71,4.18018q.56982,2.09325.94971,3.23c.76025,1.52,1.52,2.2207,2.28027,2.08984a4.59167,4.59167,0,0,0,2.46973-1.71,13.7828,13.7828,0,0,0,2.28027-3.79981q.94408-2.28,1.71-4.56005a15.48674,15.48674,0,0,0-1.14014-11.21,23.4417,23.4417,0,0,0-7.60009-8.5498,26.70878,26.70878,0,0,0-11.58985-4.37012,33.01792,33.01792,0,0,0-12.73.56983,58.28544,58.28544,0,0,0-31.16015,17.48A121.13519,121.13519,0,0,0,392.05969,198.645a174.32209,174.32209,0,0,0-8.35986,21.66016,196.35871,196.35871,0,0,0-5.32032,20.8999,50.3406,50.3406,0,0,0,.38038,10.26026q.76538,6.46581,4.17968,9.87988a44.68134,44.68134,0,0,0,7.22022,5.88965,21.60937,21.60937,0,0,0,8.35986,3.23047,27.33753,27.33753,0,0,0,11.58984-.19043,48.79737,48.79737,0,0,0,10.4502-3.79981,55.39538,55.39538,0,0,0,9.12012-5.70019q4.177-3.22413,7.60009-5.88965a36.147,36.147,0,0,0,4.17969,11.39941,26.35588,26.35588,0,0,0,19,13.11035,28.40209,28.40209,0,0,0,13.68018-1.71,91.318,91.318,0,0,0,22.60986-12.35058,114.91777,114.91777,0,0,0,19-17.85938c1.9256-2.26672,3.76184-4.62366,5.55737-7.0216.03077,1.1972.06458,2.395.13843,3.60168a62.52953,62.52953,0,0,0,3.41992,17.29q2.85059,7.979,8.55079,11.7793a28.26967,28.26967,0,0,0,18.23925,6.08007q7.59815,0,15.77051-6.83984A107.06609,107.06609,0,0,0,583.006,256.02486,199.061,199.061,0,0,0,596.49621,236.455q6.07324-10.0642,9.5-16.1499a77.79244,77.79244,0,0,1,16.90918-6.46045,106.43727,106.43727,0,0,0,18.05078-6.46q1.897-1.13965,5.50977-3.7998a56.37841,56.37841,0,0,0,6.46-5.51026,14.9526,14.9526,0,0,0,3.60938-4.93994C657.04016,191.74556,656.02549,191.04488,653.49621,191.04488Zm-72.39062,45.79A98.77892,98.77892,0,0,1,573.506,249.185a87.52179,87.52179,0,0,1-9.12012,10.83008q-4.75635,4.75635-8.5498,5.50977a26.23157,26.23157,0,0,1-3.04-8.36035,76.5088,76.5088,0,0,1-1.52053-11.21,85.05185,85.05185,0,0,1,0-11.39941A36.84872,36.84872,0,0,1,552.796,225.625a83.10615,83.10615,0,0,0,16.33984,1.52,163.50192,163.50192,0,0,0,16.33985-.76025A56.63583,56.63583,0,0,1,581.10559,236.83492Zm10.83008-32.10987a2.68568,2.68568,0,0,1-2.28028,2.27979,58.25773,58.25773,0,0,0-7.02929.76025,93.65294,93.65294,0,0,1-10.64063.94971,81.00271,81.00271,0,0,1-9.87988-.18994q-4.37256-.37428-4.37012-2.27979.375-4.177-3.41992-7.6001a3.68085,3.68085,0,0,1-.75977-2.66015q4.17627-6.457,8.74024-12.54a41.81731,41.81731,0,0,1,12.16015-10.63965,14.59918,14.59918,0,0,1,7.9795-1.52,9.96054,9.96054,0,0,1,6.83982,3.41992q5.31741,5.32545,5.50979,14.06006A38.568,38.568,0,0,1,591.93567,204.72505Z"/>
      </g>
    </g>
  </g>
  <g id="exclamacao">
    <path d="M659.57531,265.52486a10.25244,10.25244,0,0,1-9.69042-3.99024,21.84816,21.84816,0,0,1-4.93946-11.01953,25.184,25.184,0,0,1,1.33006-12.54,14.83274,14.83274,0,0,1,9.11916-8.93017q8.35547-2.65431,13.11035,2.27978a20.27275,20.27275,0,0,1,5.50977,12.3501,24.59719,24.59719,0,0,1-2.84961,14.25049A13.776,13.776,0,0,1,659.57531,265.52486ZM708.215,42.84468a9.03354,9.03354,0,0,1,6.65039-2.65967,16.81285,16.81285,0,0,1,7.21973,1.52,11.98191,11.98191,0,0,1,5.12988,4.56006,8.01521,8.01521,0,0,1,.75977,6.83984q-1.522,5.69971-4.93945,16.52979Q719.61486,80.465,714.86535,94.145q-4.75634,13.68018-10.25976,29.06983-5.51367,15.39038-11.21094,30.3999-5.6997,15.01611-11.21,28.5-5.5122,13.49341-9.68945,22.99023-1.52345,3.41968-4.17969,2.66016a5.685,5.685,0,0,1-3.80078-3.80029,119.6994,119.6994,0,0,1-1.89942-24.69971,183.96565,183.96565,0,0,1,2.2793-23.56006q1.89845-10.634,6.27051-27.36035,4.36377-16.7168,10.25976-33.81982a280.80593,280.80593,0,0,1,12.91993-31.54Q701.37171,48.54806,708.215,42.84468Z"/>
  </g>
</svg>